<svg width="100" height="100" viewBox="0 0 100 100" fill="none" xmlns="http://www.w3.org/2000/svg">
<path d="M50 100C77.6142 100 100 77.6142 100 50C100 22.3858 77.6142 0 50 0C22.3858 0 0 22.3858 0 50C0 77.6142 22.3858 100 50 100Z" fill="url(#paint0_linear_34_113)"/>
<path d="M67.5335 46.9641C67.9741 46.136 68.5873 45.4122 69.3318 44.8414C70.0762 44.2707 70.9345 43.8664 71.8486 43.6559C72.7627 43.4454 73.7113 43.4335 74.6304 43.6211C75.5495 43.8087 76.4176 44.1914 77.1761 44.7433V28.0248C77.1752 27.7291 77.0574 27.4457 76.8483 27.2366C76.6391 27.0275 76.3558 26.9096 76.06 26.9088H60.4019C60.6505 25.9441 60.675 24.9354 60.4737 23.9597C60.2723 22.9841 59.8504 22.0675 59.2402 21.2801C58.63 20.4927 57.8476 19.8554 56.9531 19.4169C56.0586 18.9784 55.0757 18.7505 54.0795 18.7505C53.0833 18.7505 52.1003 18.9784 51.2058 19.4169C50.3113 19.8554 49.529 20.4927 48.9188 21.2801C48.3086 22.0675 47.8866 22.9841 47.6853 23.9597C47.4839 24.9354 47.5085 25.9441 47.7571 26.9088H32.0989C31.8032 26.9096 31.5198 27.0275 31.3107 27.2366C31.1016 27.4457 30.9837 27.7291 30.9828 28.0248V43.6717C30.0178 43.4239 29.0088 43.4001 28.0332 43.6021C27.0575 43.8041 26.141 44.2267 25.3537 44.8373C24.5664 45.448 23.9292 46.2306 23.4908 47.1254C23.0525 48.0202 22.8246 49.0033 22.8246 49.9997C22.8246 50.9961 23.0525 51.9792 23.4908 52.874C23.9292 53.7688 24.5664 54.5514 25.3537 55.1621C26.141 55.7727 27.0575 56.1953 28.0332 56.3973C29.0088 56.5993 30.0178 56.5755 30.9828 56.3277V71.9748C30.9837 72.2705 31.1016 72.5539 31.3107 72.763C31.5198 72.9721 31.8032 73.09 32.0989 73.0908H47.757C47.5084 74.0555 47.4839 75.0643 47.6852 76.0399C47.8866 77.0155 48.3085 77.9321 48.9188 78.7195C49.529 79.5069 50.3113 80.1442 51.2058 80.5827C52.1003 81.0211 53.0833 81.2491 54.0794 81.2491C55.0756 81.2491 56.0586 81.0211 56.9531 80.5827C57.8476 80.1442 58.6299 79.5069 59.2401 78.7195C59.8503 77.9321 60.2723 77.0155 60.4736 76.0399C60.675 75.0643 60.6504 74.0555 60.4018 73.0908H76.06C76.3558 73.09 76.6391 72.9721 76.8482 72.763C77.0574 72.5539 77.1752 72.2705 77.1761 71.9748V55.2676C75.9835 56.1265 74.5365 56.559 73.0682 56.4953C71.5999 56.4316 70.1957 55.8754 69.0821 54.9164C67.9684 53.9574 67.21 52.6513 66.929 51.2087C66.6481 49.7661 66.861 48.271 67.5335 46.9641ZM65.4688 39.2634L60.3126 61.2384C60.2558 61.4706 60.126 61.6784 59.9423 61.8313C59.7586 61.9841 59.5308 62.0741 59.2922 62.0878C59.0536 62.1015 58.8169 62.0383 58.6168 61.9075C58.4168 61.7767 58.2641 61.5852 58.181 61.3611L54.0739 49.732L49.978 61.3612C49.897 61.5875 49.745 61.7815 49.5446 61.9142C49.3442 62.0469 49.1062 62.1112 48.8663 62.0974C48.6263 62.0836 48.3973 61.9924 48.2134 61.8376C48.0296 61.6828 47.9008 61.4726 47.8464 61.2384L42.6902 39.2634C42.6236 38.9748 42.6744 38.6716 42.8314 38.4204C42.9883 38.1693 43.2386 37.9908 43.5272 37.9242C43.8158 37.8576 44.1191 37.9083 44.3702 38.0653C44.6214 38.2223 44.7999 38.4726 44.8665 38.7612L49.1409 57.0198L53.0249 46.0043C53.1047 45.789 53.2486 45.6032 53.4371 45.4721C53.6256 45.3409 53.8498 45.2706 54.0795 45.2706C54.3092 45.2706 54.5334 45.3409 54.7219 45.4721C54.9104 45.6032 55.0543 45.789 55.1341 46.0043L59.018 57.0197L63.2924 38.7611C63.3627 38.4764 63.5421 38.2306 63.792 38.0771C64.0419 37.9235 64.3422 37.8744 64.628 37.9403C64.9138 38.0063 65.1622 38.1821 65.3195 38.4296C65.4768 38.6772 65.5304 38.9767 65.4688 39.2634Z" fill="url(#paint1_linear_34_113)"/>
<defs>
<linearGradient id="paint0_linear_34_113" x1="0" y1="50" x2="100" y2="50" gradientUnits="userSpaceOnUse">
<stop stop-color="#FFF1FF"/>
<stop offset="1" stop-color="#FFBEF9"/>
</linearGradient>
<linearGradient id="paint1_linear_34_113" x1="22.8234" y1="49.9998" x2="77.1766" y2="49.9998" gradientUnits="userSpaceOnUse">
<stop stop-color="#FF81FF"/>
<stop offset="1" stop-color="#F17E4E"/>
</linearGradient>
</defs>
</svg>
