<svg width="100" height="100" viewBox="0 0 100 100" fill="none" xmlns="http://www.w3.org/2000/svg">
<path d="M50 100C77.6142 100 100 77.6142 100 50C100 22.3858 77.6142 0 50 0C22.3858 0 0 22.3858 0 50C0 77.6142 22.3858 100 50 100Z" fill="url(#paint0_linear_1563_44)"/>
<path d="M67.7738 30.0223C65.3693 30.0424 63.0135 30.7014 60.9476 31.9318C58.8817 33.1621 57.1801 34.9196 56.017 37.0241C54.8539 39.1286 54.2713 41.5044 54.3287 43.9082C54.3861 46.312 55.0816 48.6574 56.3438 50.7039L53.0811 53.1396C52.7269 53.413 52.4665 53.7898 52.3359 54.2178C52.2052 54.6458 52.2109 55.1038 52.352 55.5284C52.4932 55.953 52.7628 56.3232 53.1237 56.5879C53.4845 56.8525 53.9187 56.9984 54.3661 57.0054H67.7738C85.6809 56.2695 85.6732 30.7638 67.7738 30.0223ZM73.595 40.9496L66.8911 47.6535C66.7891 47.7595 66.6668 47.8438 66.5314 47.9014C66.3961 47.959 66.2505 47.9887 66.1034 47.9887C65.9563 47.9887 65.8107 47.959 65.6753 47.9014C65.54 47.8438 65.4176 47.7595 65.3156 47.6535L61.9637 44.3015C61.7585 44.0918 61.6443 43.8096 61.6459 43.5163C61.6475 43.2229 61.7648 42.942 61.9722 42.7346C62.1797 42.5271 62.4606 42.4099 62.754 42.4083C63.0473 42.4067 63.3295 42.5209 63.5392 42.7261L66.0978 45.2847L72.0196 39.3741C72.2298 39.1716 72.5111 39.0596 72.803 39.0623C73.0949 39.0649 73.3742 39.1821 73.5806 39.3885C73.787 39.595 73.9042 39.8742 73.9069 40.1661C73.9096 40.4581 73.7976 40.7394 73.595 40.9496ZM50.8017 46.4244C49.9603 48.4168 47.4095 48.4015 45.5279 48.7262C46.7999 53.3116 46.2185 54.7344 41.9748 56.1452C44.3671 57.5494 45.4427 60.0684 43.3827 62.4133C43.1924 62.6209 43.085 62.8913 43.081 63.1729C43.2273 70.137 36.2222 68.5709 31.1928 68.6367C30.6378 68.6421 30.4769 68.8096 30.3548 69.0725C29.6152 70.6911 28.8654 72.3081 28.1314 73.9216C28.0447 74.1187 27.9023 74.2862 27.7216 74.4033C27.541 74.5205 27.33 74.5822 27.1146 74.5809H19.8185C19.5225 74.58 19.2388 74.462 19.0295 74.2526C18.8201 74.0433 18.7021 73.7596 18.7012 73.4636V26.5363C18.7021 26.2402 18.8201 25.9565 19.0295 25.7472C19.2388 25.5378 19.5225 25.4198 19.8185 25.4189H44.4331C44.6022 25.42 44.769 25.4593 44.9208 25.5339C45.0726 25.6085 45.2056 25.7164 45.3099 25.8497C45.4141 25.9829 45.4868 26.138 45.5227 26.3033C45.5585 26.4687 45.5565 26.64 45.5168 26.8044C45.461 27.0614 44.9023 29.5865 44.9023 29.5865C44.6758 30.5489 44.6501 31.5477 44.827 32.5204C45.0038 33.4932 45.3794 34.4191 45.9302 35.2401C47.2264 37.2848 48.4554 39.4077 49.6397 41.4748C50.5259 42.9353 51.7198 44.768 50.8017 46.4244Z" fill="url(#paint1_linear_1563_44)"/>
<defs>
<linearGradient id="paint0_linear_1563_44" x1="0" y1="50" x2="100" y2="50" gradientUnits="userSpaceOnUse">
<stop stop-color="#FFF1FF"/>
<stop offset="1" stop-color="#FFBEF9"/>
</linearGradient>
<linearGradient id="paint1_linear_1563_44" x1="18.7015" y1="49.9999" x2="81.2015" y2="49.9999" gradientUnits="userSpaceOnUse">
<stop stop-color="#FF81FF"/>
<stop offset="1" stop-color="#F17E4E"/>
</linearGradient>
</defs>
</svg>
