<svg width="100" height="100" viewBox="0 0 100 100" fill="none" xmlns="http://www.w3.org/2000/svg">
<path d="M50 100C77.6142 100 100 77.6142 100 50C100 22.3858 77.6142 0 50 0C22.3858 0 0 22.3858 0 50C0 77.6142 22.3858 100 50 100Z" fill="url(#paint0_linear_1563_70)"/>
<path d="M31.596 36.3282C32.7074 36.327 33.8028 36.5933 34.7895 37.1048C35.7763 37.6162 36.6253 38.3577 37.265 39.2666C37.9047 40.1755 38.3162 41.225 38.4646 42.3264C38.6131 43.4279 38.4942 44.5489 38.118 45.5947C37.7417 46.6405 37.1193 47.5803 36.3032 48.3347C35.487 49.0892 34.5013 49.6361 33.4292 49.9291C32.3571 50.2222 31.2303 50.2528 30.1439 50.0185C29.0574 49.7841 28.0434 49.2916 27.1875 48.5826C26.0977 47.6712 25.3142 46.4471 24.9428 45.0758C24.5715 43.7045 24.6302 42.2523 25.1111 40.9155C25.592 39.5787 26.4719 38.4218 27.6317 37.6014C28.7915 36.781 30.1754 36.3365 31.596 36.3282ZM44.4531 58.1474C44.3639 56.2292 43.7411 54.374 42.6546 52.7906C41.5681 51.2073 40.0612 49.9586 38.3036 49.1853C37.4487 50.1067 36.4131 50.8419 35.2613 51.3451C34.1096 51.8482 32.8664 52.1084 31.6096 52.1095C30.3527 52.1105 29.1091 51.8524 27.9565 51.3512C26.8039 50.85 25.7671 50.1165 24.9107 49.1965C23.1483 49.9613 21.6362 51.206 20.5469 52.7886C19.4577 54.3712 18.835 56.228 18.75 58.1474C18.7518 59.5321 19.3026 60.8596 20.2818 61.8388C21.261 62.818 22.5885 63.3688 23.9732 63.3706H39.2299C40.6146 63.3688 41.9421 62.8179 42.9213 61.8388C43.9005 60.8596 44.4513 59.5321 44.4531 58.1474ZM61.4732 43.2479C61.4885 45.0745 62.2249 46.8211 63.522 48.1074C64.8191 49.3936 66.5718 50.1153 68.3985 50.1153C70.2252 50.1153 71.9779 49.3936 73.275 48.1073C74.5721 46.821 75.3084 45.0744 75.3236 43.2477C75.3079 41.4214 74.5713 39.6752 73.2743 38.3894C71.9772 37.1035 70.2248 36.3821 68.3984 36.3821C66.572 36.3821 64.8195 37.1036 63.5225 38.3895C62.2255 39.6754 61.489 41.4215 61.4732 43.2479ZM75.0892 49.1965C74.2295 50.1087 73.1922 50.8354 72.0411 51.3318C70.89 51.8281 69.6495 52.0836 68.396 52.0825C67.1424 52.0815 65.9023 51.8239 64.7521 51.3256C63.6018 50.8273 62.5657 50.0989 61.7075 49.1852C59.9464 49.9549 58.4358 51.2024 57.347 52.7863C56.2583 54.3702 55.6347 56.2273 55.5469 58.1474C55.5487 59.5321 56.0995 60.8596 57.0787 61.8388C58.0579 62.818 59.3854 63.3688 60.7701 63.3706H76.0268C77.4116 63.3688 78.7391 62.818 79.7182 61.8388C80.6974 60.8596 81.2482 59.5321 81.25 58.1474C81.165 56.228 80.5423 54.3712 79.453 52.7886C78.3638 51.206 76.8517 49.9613 75.0892 49.1965ZM70.5165 70.5166C65.4077 75.5853 58.6041 78.5845 51.416 78.9366C44.228 79.2887 37.1638 76.9688 31.584 72.4237L35.0055 72.424C35.2978 72.4183 35.5761 72.2982 35.7808 72.0895C35.9854 71.8808 36.1001 71.6002 36.1001 71.3079C36.1001 71.0156 35.9854 70.7349 35.7808 70.5263C35.5761 70.3176 35.2978 70.1975 35.0055 70.1918H28.7055C28.4089 70.1938 28.1248 70.3116 27.9138 70.5201C27.7028 70.7286 27.5817 71.0113 27.5762 71.3079V77.6212C27.5818 77.9135 27.7019 78.1918 27.9106 78.3965C28.1193 78.6012 28.3999 78.7158 28.6922 78.7158C28.9845 78.7158 29.2652 78.6012 29.4738 78.3965C29.6825 78.1918 29.8026 77.9135 29.8083 77.6212V73.8389C35.8027 78.8784 43.4652 81.4938 51.2899 81.171C59.1146 80.8483 66.5357 77.6107 72.0947 72.0945C72.2972 71.8839 72.409 71.6022 72.4061 71.31C72.4032 71.0178 72.2858 70.7384 72.0792 70.5318C71.8726 70.3253 71.5932 70.2079 71.301 70.2051C71.0088 70.2022 70.7271 70.3141 70.5165 70.5166ZM29.4835 29.4836C34.5923 24.4148 41.3959 21.4156 48.584 21.0635C55.772 20.7114 62.8362 23.0313 68.416 27.5765L64.9945 27.5762C64.7022 27.5819 64.4239 27.702 64.2192 27.9107C64.0146 28.1193 63.8999 28.4 63.8999 28.6923C63.8999 28.9846 64.0146 29.2652 64.2192 29.4739C64.4239 29.6826 64.7022 29.8027 64.9945 29.8083H71.2944C71.591 29.8064 71.8752 29.6886 72.0862 29.4801C72.2971 29.2716 72.4183 28.9888 72.4238 28.6923V22.379C72.4181 22.0867 72.298 21.8084 72.0893 21.6037C71.8806 21.399 71.6 21.2844 71.3077 21.2844C71.0154 21.2844 70.7348 21.399 70.5261 21.6037C70.3174 21.8084 70.1973 22.0867 70.1916 22.379V26.1613C64.1972 21.1218 56.5347 18.5064 48.71 18.8292C40.8853 19.1519 33.4643 22.3895 27.9053 27.9057C27.7028 28.1163 27.591 28.398 27.5939 28.6902C27.5968 28.9823 27.7142 29.2617 27.9208 29.4683C28.1274 29.6749 28.4068 29.7922 28.699 29.7951C28.9912 29.7979 29.2729 29.6861 29.4835 29.4836Z" fill="url(#paint1_linear_1563_70)"/>
<defs>
<linearGradient id="paint0_linear_1563_70" x1="0" y1="50" x2="100" y2="50" gradientUnits="userSpaceOnUse">
<stop stop-color="#FFF1FF"/>
<stop offset="1" stop-color="#FFBEF9"/>
</linearGradient>
<linearGradient id="paint1_linear_1563_70" x1="18.75" y1="50.0001" x2="81.25" y2="50.0001" gradientUnits="userSpaceOnUse">
<stop stop-color="#FF81FF"/>
<stop offset="1" stop-color="#F17E4E"/>
</linearGradient>
</defs>
</svg>
